IKResults
version=1
nRows=9
nColumns=63
inDegrees=yes

Units are S.I. units (second, meters, Newtons, ...)
If the header above contains a line with 'inDegrees', this indicates whether rotational values are in degrees (yes) or radians (no).

endheader
time	pelvis_tilt	pelvis_list	pelvis_rotation	pelvis_tx	pelvis_ty	pelvis_tz	hip_flexion_r	hip_adduction_r	hip_rotation_r	knee_angle_r	knee_angle_r_beta	ankle_angle_r	subtalar_angle_r	mtp_angle_r	hip_flexion_l	hip_adduction_l	hip_rotation_l	knee_angle_l	knee_angle_l_beta	ankle_angle_l	subtalar_angle_l	mtp_angle_l	L5_S1_Flex_Ext	L5_S1_Lat_Bending	L5_S1_axial_rotation	L4_L5_Flex_Ext	L4_L5_Lat_Bending	L4_L5_axial_rotation	L3_L4_Flex_Ext	L3_L4_Lat_Bending	L3_L4_axial_rotation	L2_L3_Flex_Ext	L2_L3_Lat_Bending	L2_L3_axial_rotation	L1_L2_Flex_Ext	L1_L2_Lat_Bending	L1_L2_axial_rotation	L1_T12_Flex_Ext	L1_T12_Lat_Bending	L1_T12_axial_rotation	Abs_r3	Abs_r2	Abs_r1	Abs_t1	Abs_t2	neck_flexion	neck_bending	neck_rotation	arm_flex_r	arm_add_r	arm_rot_r	elbow_flex_r	pro_sup_r	wrist_flex_r	wrist_dev_r	arm_flex_l	arm_add_l	arm_rot_l	elbow_flex_l	pro_sup_l	wrist_flex_l	wrist_dev_l
      2.03333333	    103.63137237	      0.76160475	     -1.12119211	     -0.82362112	      0.29842419	     -0.26951163	     -0.10962851	    -22.44708348	     -9.87985618	     47.31679558	      0.82583387	    -33.47361580	    -17.15358029	      0.00000000	      0.94772470	    -17.65529777	     -3.04982544	     48.95509472	      0.85442759	    -29.57668619	    -15.80640918	      0.00000000	    -10.71192383	     -0.41257190	     -2.34419447	    -19.89311375	     -0.54872063	     -2.49070663	    -17.59861966	     -1.00312732	     -2.49070663	    -12.24265775	     -1.00312732	     -2.05117016	     -9.94709247	     -0.84131662	     -1.90465801	     -6.12079328	     -0.63907387	     -1.75814585	    -76.51420074	     -4.66709586	    -13.03770640	      0.00000000	      0.00000000	    -11.49910486	      0.64944009	     -1.03623597	     23.73647668	    -33.84467094	     18.67367442	     46.33869160	     89.99559364	      0.00000000	      0.00000000	      0.25506686	    -37.21379475	     -3.76866570	     63.29669531	     89.99559364	      0.00000000	      0.00000000
      2.06666667	    103.26586761	      1.45137210	     -0.94176256	     -0.82045679	      0.30140878	     -0.26952949	      1.60815185	    -23.94834450	    -11.07162658	     50.53295012	      0.88196636	    -33.66232183	    -17.64818692	      0.00000000	      2.02325989	    -16.81486572	     -2.16926516	     50.79393840	      0.88652147	    -28.58214996	    -15.97651762	      0.00000000	    -10.89226876	     -0.49921432	     -2.61086482	    -20.22803231	     -0.66395504	     -2.77404387	    -17.89490834	     -1.21378969	     -2.77404387	    -12.44877397	     -1.21378969	     -2.28450672	    -10.11456077	     -1.01799784	     -2.12132767	     -6.22384237	     -0.77328298	     -1.95814862	    -77.80238652	     -5.64721221	    -14.52084687	      0.00000000	      0.00000000	    -10.44446128	      1.07647221	     -1.04681014	     24.79967477	    -33.00759013	     20.42121843	     46.12051158	     89.99559364	      0.00000000	      0.00000000	     -0.38536385	    -37.39071310	     -4.94773907	     64.12684527	     89.99559364	      0.00000000	      0.00000000
      2.10000000	    103.11175271	      1.77907271	     -0.87667206	     -0.81753390	      0.30440036	     -0.26984273	      3.02554096	    -24.92024616	    -11.70851646	     53.50467042	      0.93383266	    -34.17681374	    -18.27670167	      0.00000000	      2.85307853	    -16.39978731	     -1.54899183	     52.91478369	      0.92353720	    -27.54006343	    -16.32231860	      0.00000000	    -11.11973388	     -0.53874136	     -2.74666949	    -20.65045778	     -0.71652601	     -2.91833634	    -18.26861078	     -1.30989574	     -2.91833634	    -12.70874385	     -1.30989574	     -2.40333581	    -10.32578488	     -1.09860138	     -2.23166896	     -6.35381594	     -0.83451037	     -2.06000212	    -79.42714710	     -6.09435001	    -15.27615173	      0.00000000	      0.00000000	     -8.92170209	      1.18040583	     -1.38029863	     25.21539699	    -32.69531018	     21.13853130	     46.86644384	     89.99559364	      0.00000000	      0.00000000	     -0.53559486	    -37.47770019	     -5.42992895	     64.91396572	     89.99559364	      0.00000000	      0.00000000
      2.13333333	    102.39324385	      2.59111492	     -0.52003478	     -0.81261774	      0.30763006	     -0.26986686	      5.08758990	    -26.67619532	    -12.62730806	     57.04296371	      0.99558753	    -34.18822180	    -18.47729713	      0.00000000	      4.58041163	    -15.61322430	     -0.83760045	     55.44410885	      0.96768225	    -26.85141703	    -16.77482976	      0.00000000	    -11.22392647	     -0.60939936	     -3.01202307	    -20.84395386	     -0.81050115	     -3.20027451	    -18.43978881	     -1.48169361	     -3.20027451	    -12.82782557	     -1.48169361	     -2.63552018	    -10.42253812	     -1.24268718	     -2.44726874	     -6.41335159	     -0.94395961	     -2.25901730	    -80.17138442	     -6.89364745	    -16.75196869	      0.00000000	      0.00000000	     -8.25237515	      1.35197349	     -1.32017271	     25.56076208	    -32.09497099	     22.45147408	     47.28673409	     89.99559364	      0.00000000	      0.00000000	     -1.64753513	    -37.70769386	     -6.80191405	     66.05011549	     89.99559364	      0.00000000	      0.00000000
      2.16666667	    101.78804198	      3.13708027	     -0.26824380	     -0.80801992	      0.31081255	     -0.26985673	      6.83028840	    -28.13345943	    -13.34314774	     60.22305654	      1.05109062	    -34.27803404	    -18.58505839	      0.00000000	      6.10798062	    -15.14767523	     -0.36902982	     57.99104635	      1.01213470	    -26.41885171	    -17.32935340	      0.00000000	    -11.34684975	     -0.66199060	     -3.23556328	    -21.07223467	     -0.88044750	     -3.43778599	    -18.64173946	     -1.60956394	     -3.43778599	    -12.96831458	     -1.60956394	     -2.83111787	    -10.53668468	     -1.34993123	     -2.62889517	     -6.48358995	     -1.02542344	     -2.42667246	    -81.04941309	     -7.48857006	    -17.99523231	      0.00000000	      0.00000000	     -7.36801361	      1.28004631	     -0.66311104	     26.10769878	    -31.43911962	     23.56957476	     47.30665129	     89.99559364	      0.00000000	      0.00000000	     -2.80931889	    -37.81947249	     -8.24513872	     67.06479363	     89.99559364	      0.00000000	      0.00000000
      2.20000000	    101.22110398	      3.29317368	     -0.13177141	     -0.80353474	      0.31393133	     -0.26973849	      8.36235024	    -28.99764429	    -13.65790260	     63.05118534	      1.10045078	    -34.35318303	    -18.70174623	      0.00000000	      7.54355374	    -15.18634323	     -0.09339314	     60.54658050	      1.05673718	    -26.23888996	    -17.80867459	      0.00000000	    -11.48421888	     -0.66453989	     -3.29606586	    -21.32734287	     -0.88383805	     -3.50206997	    -18.86742319	     -1.61576228	     -3.50206997	    -13.12531375	     -1.61576228	     -2.88405762	    -10.66424565	     -1.35512974	     -2.67805351	     -6.56208267	     -1.02937229	     -2.47204939	    -82.03062700	     -7.51740811	    -18.33172948	      0.00000000	      0.00000000	     -6.34359461	      1.06915958	     -0.47098402	     25.93623698	    -31.41178757	     23.94639414	     48.29671613	     89.99559364	      0.00000000	      0.00000000	     -3.19907356	    -37.86325230	     -8.76908954	     67.77888162	     89.99559364	      0.00000000	      0.00000000
      2.23333333	    100.36338669	      3.38934844	      0.02192989	     -0.79843154	      0.31709644	     -0.26932944	     10.02226591	    -29.97387413	    -14.22654013	     65.79860105	      1.14840223	    -34.21056551	    -18.74158522	      0.00000000	      9.26556493	    -15.36196330	      0.15435492	     63.05472252	      1.10051252	    -26.36007221	    -18.18214291	      0.00000000	    -11.56469995	     -0.65363543	     -3.31072015	    -21.47680427	     -0.86933512	     -3.51764016	    -18.99964554	     -1.58924917	     -3.51764016	    -13.21729557	     -1.58924917	     -2.89688013	    -10.73898037	     -1.33289336	     -2.68996012	     -6.60806955	     -1.01248127	     -2.48304011	    -82.60549524	     -7.39405466	    -18.41323227	      0.00000000	      0.00000000	     -5.74295315	      0.95065237	     -0.30352850	     25.44673165	    -31.29247535	     23.70344944	     49.10872536	     89.99559364	      0.00000000	      0.00000000	     -3.45134984	    -37.85372188	     -9.05114969	     68.21161782	     89.99559364	      0.00000000	      0.00000000
      2.26666667	     99.74221270	      3.22427963	     -0.07045410	     -0.79379080	      0.32021286	     -0.26851758	     11.21050130	    -30.64392666	    -14.74970939	     68.10439790	      1.18864598	    -33.95772719	    -18.81029639	      0.00000000	     10.54161062	    -15.91134538	      0.14504348	     65.38288712	      1.14114665	    -26.69952094	    -18.51202381	      0.00000000	    -11.68825030	     -0.63137700	     -3.21833002	    -21.70624963	     -0.83973141	     -3.41947565	    -19.20262641	     -1.53513005	     -3.41947565	    -13.35850126	     -1.53513005	     -2.81603877	    -10.85370923	     -1.28750399	     -2.61489314	     -6.67866622	     -0.97800298	     -2.41374752	    -83.48800305	     -7.14226294	    -17.89938609	      0.00000000	      0.00000000	     -4.85546008	      0.86822842	     -0.16827220	     24.71871217	    -31.53550934	     23.32843799	     50.46889605	     89.99559364	      0.00000000	      0.00000000	     -3.48024707	    -37.92331070	     -8.88205467	     68.73156826	     89.99559364	      0.00000000	      0.00000000
      2.30000000	     98.44328953	      3.12418491	      0.19287676	     -0.78745348	      0.32357032	     -0.26752965	     12.66765720	    -31.94089025	    -16.39664358	     70.41737746	      1.22901509	    -33.64390531	    -18.86085196	      0.00000000	     12.65647487	    -16.43709596	      0.48823629	     67.75544680	      1.18255563	    -27.06914979	    -18.70131481	      0.00000000	    -11.69244918	     -0.53954309	     -2.96303811	    -21.71404738	     -0.71759231	     -3.14822800	    -19.20952476	     -1.31184507	     -3.14822800	    -13.36330017	     -1.31184507	     -2.59265835	    -10.85760831	     -1.10023627	     -2.40746847	     -6.68106546	     -0.83575225	     -2.22227859	    -83.51799527	     -6.10341933	    -16.47952908	      0.00000000	      0.00000000	     -4.89567543	      1.10243054	     -1.34500007	     21.75676355	    -31.76030311	     19.41462781	     52.62950820	     89.99559364	      0.00000000	      0.00000000	     -2.10093435	    -37.91823864	     -7.02740425	     68.22377071	     89.99559364	      0.00000000	      0.00000000
